<svg width="21" height="21" viewBox="0 0 21 21" fill="none" xmlns="http://www.w3.org/2000/svg">
<path d="M19.1182 20.0625L20.0166 16.1172C20.0947 15.8307 20.0557 15.5573 19.8994 15.2969C19.7692 15.0365 19.5739 14.8411 19.3135 14.7109L15.0947 12.9141C14.8343 12.8099 14.5739 12.7839 14.3135 12.8359C14.0531 12.9141 13.8317 13.0573 13.6494 13.2656L11.9307 15.375C10.5765 14.6979 9.36556 13.8255 8.29785 12.7578C7.23014 11.6901 6.35775 10.4792 5.68066 9.125L7.79004 7.40625C7.99837 7.22396 8.12858 7.0026 8.18066 6.74219C8.25879 6.48177 8.24577 6.22135 8.1416 5.96094L6.34473 1.74219C6.21452 1.48177 6.01921 1.27344 5.75879 1.11719C5.49837 0.986979 5.22493 0.960937 4.93848 1.03906L0.993164 1.9375C0.732747 2.01562 0.511393 2.15885 0.329102 2.36719C0.14681 2.60156 0.0556641 2.86198 0.0556641 3.14844C0.0556641 6.3776 0.862956 9.3724 2.47754 12.1328C4.06608 14.8411 6.2015 16.9766 8.88379 18.5391C11.6702 20.1797 14.6911 21 17.9463 21C18.2067 21 18.4411 20.9089 18.6494 20.7266C18.8838 20.5443 19.04 20.3229 19.1182 20.0625ZM1.30566 3.14844L5.21191 2.25L7.00879 6.46875L4.15723 8.77344C5.09473 10.8047 6.17546 12.4323 7.39941 13.6562C8.62337 14.8802 10.251 15.9609 12.2822 16.8984L14.5869 14.0469L18.8057 15.8438L17.9072 19.75C14.9124 19.75 12.126 18.9948 9.54785 17.4844C7.02181 16 5.02962 14.0078 3.57129 11.5078C2.06087 8.92969 1.30566 6.14323 1.30566 3.14844Z" fill="white"/>
</svg>
