<svg width="20" height="15" viewBox="0 0 20 15" fill="none" xmlns="http://www.w3.org/2000/svg">
<path d="M18.125 -0.000152588L1.875 -0.000152588C1.35417 -0.000152588 0.911458 0.182139 0.546875 0.546722C0.182292 0.911306 0 1.35401 0 1.87485L0 13.1248C0 13.6457 0.182292 14.0884 0.546875 14.453C0.911458 14.8176 1.35417 14.9998 1.875 14.9998L18.125 14.9998C18.6458 14.9998 19.0885 14.8176 19.4531 14.453C19.8177 14.0884 20 13.6457 20 13.1248V1.87485C20 1.35401 19.8177 0.911306 19.4531 0.546722C19.0885 0.182139 18.6458 -0.000152588 18.125 -0.000152588ZM1.875 1.24985L18.125 1.24985C18.3073 1.24985 18.4505 1.31495 18.5547 1.44516C18.6849 1.54933 18.75 1.69256 18.75 1.87485V3.47641C17.8385 4.25766 15.8724 5.8462 12.8516 8.24203L12.4609 8.55453C11.9401 8.99724 11.5365 9.30974 11.25 9.49203C10.7552 9.83058 10.3385 9.99985 10 9.99985C9.66146 9.99985 9.24479 9.83058 8.75 9.49203C8.4375 9.30974 8.02083 8.99724 7.5 8.55453L7.14844 8.24203C4.1276 5.8462 2.16146 4.25766 1.25 3.47641V1.87485C1.25 1.69256 1.30208 1.54933 1.40625 1.44516C1.53646 1.31495 1.69271 1.24985 1.875 1.24985ZM18.125 13.7498L1.875 13.7498C1.69271 13.7498 1.53646 13.6978 1.40625 13.5936C1.30208 13.4634 1.25 13.3071 1.25 13.1248L1.25 5.11703C2.16146 5.8462 3.86719 7.21339 6.36719 9.2186L6.75781 9.5311C7.35677 10.0519 7.85156 10.4295 8.24219 10.6639C8.89323 11.0545 9.47917 11.2498 10 11.2498C10.5208 11.2498 11.1068 11.0545 11.7578 10.6639C12.1224 10.4295 12.6172 10.0519 13.2422 9.5311L13.6328 9.2186C16.1328 7.21339 17.8385 5.8462 18.75 5.11703V13.1248C18.75 13.3071 18.6849 13.4634 18.5547 13.5936C18.4505 13.6978 18.3073 13.7498 18.125 13.7498Z" fill="white"/>
</svg>
