<svg width="29" height="28" viewBox="0 0 29 28" fill="none" xmlns="http://www.w3.org/2000/svg">
<path fill-rule="evenodd" clip-rule="evenodd" d="M14.6628 0C10.9089 0 10.4378 0.016414 8.96342 0.0835098C7.49192 0.150894 6.4875 0.383857 5.60863 0.725672C4.69953 1.07872 3.92836 1.55098 3.16007 2.31956C2.3912 3.08785 1.91894 3.85902 1.56474 4.76784C1.22206 5.64699 0.988809 6.6517 0.922577 8.12263C0.856633 9.59701 0.839355 10.0684 0.839355 13.8223C0.839355 17.5762 0.856057 18.0459 0.922865 19.5203C0.990537 20.9918 1.2235 21.9962 1.56503 22.8751C1.91836 23.7842 2.39062 24.5553 3.1592 25.3236C3.9272 26.0925 4.69837 26.5659 5.6069 26.919C6.48635 27.2608 7.49106 27.4937 8.96227 27.5611C10.4367 27.6282 10.9075 27.6446 14.6611 27.6446C18.4153 27.6446 18.885 27.6282 20.3594 27.5611C21.8309 27.4937 22.8364 27.2608 23.7159 26.919C24.6247 26.5659 25.3947 26.0925 26.1627 25.3236C26.9316 24.5553 27.4038 23.7842 27.758 22.8754C28.0978 21.9962 28.3311 20.9915 28.4002 19.5206C28.4664 18.0462 28.4837 17.5762 28.4837 13.8223C28.4837 10.0684 28.4664 9.5973 28.4002 8.12292C28.3311 6.65141 28.0978 5.64699 27.758 4.76812C27.4038 3.85902 26.9316 3.08785 26.1627 2.31956C25.3938 1.55069 24.625 1.07843 23.715 0.725672C22.8338 0.383857 21.8288 0.150894 20.3573 0.0835098C18.883 0.016414 18.4136 0 14.6585 0L14.6628 0ZM13.4231 2.49109C13.7911 2.49051 14.2017 2.49109 14.663 2.49109C18.3536 2.49109 18.791 2.50433 20.2484 2.57056C21.5961 2.63219 22.3275 2.85738 22.8148 3.04657C23.4598 3.2971 23.9197 3.59658 24.4032 4.08036C24.887 4.56415 25.1864 5.02489 25.4375 5.66993C25.6267 6.15659 25.8522 6.88802 25.9136 8.2357C25.9798 9.6928 25.9942 10.1305 25.9942 13.8193C25.9942 17.5082 25.9798 17.9459 25.9136 19.403C25.8519 20.7507 25.6267 21.4821 25.4375 21.9687C25.187 22.6138 24.887 23.0731 24.4032 23.5566C23.9194 24.0404 23.4601 24.3399 22.8148 24.5904C22.3281 24.7804 21.5961 25.0051 20.2484 25.0667C18.7913 25.1329 18.3536 25.1473 14.663 25.1473C10.9722 25.1473 10.5348 25.1329 9.07768 25.0667C7.73 25.0045 6.99857 24.7793 6.51105 24.5901C5.86601 24.3396 5.40526 24.0401 4.92148 23.5563C4.4377 23.0725 4.13822 22.6129 3.88711 21.9676C3.69792 21.4809 3.47244 20.7495 3.41111 19.4018C3.34487 17.9447 3.33163 17.507 3.33163 13.8159C3.33163 10.1247 3.34487 9.68935 3.41111 8.23224C3.47273 6.88457 3.69792 6.15314 3.88711 5.6659C4.13764 5.02086 4.4377 4.56011 4.92148 4.07633C5.40526 3.59255 5.86601 3.29307 6.51105 3.04196C6.99829 2.85191 7.73 2.62729 9.07768 2.56538C10.3528 2.50779 10.8469 2.49051 13.4231 2.48763V2.49109ZM22.0413 4.78617C21.1256 4.78617 20.3826 5.52825 20.3826 6.44427C20.3826 7.36 21.1256 8.10295 22.0413 8.10295C22.957 8.10295 23.7 7.36 23.7 6.44427C23.7 5.52854 22.957 4.78559 22.0413 4.78559V4.78617ZM14.663 6.72395C10.7429 6.72395 7.56462 9.90222 7.56462 13.8223C7.56462 17.7424 10.7429 20.9192 14.663 20.9192C18.583 20.9192 21.7601 17.7424 21.7601 13.8223C21.7601 9.90222 18.5827 6.72395 14.6627 6.72395H14.663ZM14.6627 9.21501C17.2071 9.21501 19.2701 11.2777 19.2701 13.8224C19.2701 16.3669 17.2071 18.4299 14.6627 18.4299C12.1179 18.4299 10.0552 16.3669 10.0552 13.8224C10.0552 11.2777 12.1179 9.21501 14.6627 9.21501V9.21501Z" fill="white"/>
</svg>
