<svg width="219" height="219" viewBox="0 0 219 219" fill="none" xmlns="http://www.w3.org/2000/svg">
<circle cx="109.585" cy="109.725" r="109.153" fill="#EBEAEA" fill-opacity="0.34"/>
<circle cx="109.591" cy="110.53" r="100.109" fill="white"/>
<g clip-path="url(#clip0_47_787)">
<path d="M109.572 46.9484C127.608 46.9484 145.644 46.9484 163.679 46.9484C166.157 46.9484 167.822 48.5294 167.931 50.988C167.936 51.126 167.933 51.2639 167.933 51.4019C167.933 63.9333 167.943 76.4633 167.911 88.9947C167.908 89.817 167.745 90.7193 167.377 91.4436C166.636 92.9074 165.29 93.5034 163.652 93.5007C158.518 93.491 153.386 93.5048 148.252 93.4896C147.729 93.4882 147.35 93.6262 146.976 94.0042C144.441 96.5566 141.911 99.1145 139.324 101.612C137.009 103.845 134.223 104.561 131.136 103.631C128.074 102.708 126.17 100.589 125.51 97.4782C125.293 96.4586 125.329 95.3742 125.352 94.3215C125.365 93.651 125.167 93.4813 124.5 93.4827C106.487 93.5007 88.475 93.4965 70.4613 93.4965C65.5357 93.4965 60.6115 93.4979 55.6859 93.4965C52.868 93.4965 51.2418 91.8934 51.2404 89.0899C51.2349 76.513 51.2349 63.936 51.2377 51.3591C51.2391 48.5515 52.8624 46.9484 55.6721 46.9484C73.6386 46.9484 91.6051 46.9484 109.572 46.9484ZM101.764 75.7956C101.749 79.0281 104.872 81.0451 107.482 79.591C109.013 78.737 110.206 78.6487 111.69 79.6034C112.975 80.4312 114.425 80.1994 115.684 79.3468C116.948 78.49 117.515 77.2469 117.386 75.7224C117.342 75.1968 117.261 74.6698 117.133 74.1579C116.977 73.5246 117.028 73.01 117.608 72.5906C117.978 72.323 118.291 71.9712 118.607 71.6373C119.689 70.4894 120.086 69.1511 119.596 67.6349C119.108 66.1242 118.027 65.0605 116.465 64.9735C114.65 64.8728 113.699 64.0864 113.031 62.4584C112.447 61.036 111.106 60.36 109.549 60.3752C107.993 60.3917 106.826 61.1519 106.068 62.5095C105.889 62.8309 105.692 63.1524 105.58 63.4987C105.297 64.3762 104.732 64.7942 103.797 64.7666C103.456 64.7569 103.11 64.848 102.77 64.9142C101.19 65.2233 100.073 66.1021 99.5776 67.6432C99.0892 69.1608 99.4874 70.5004 100.574 71.6442C100.971 72.0622 101.435 72.4195 101.795 72.8638C101.981 73.0942 102.107 73.4639 102.081 73.7564C102.013 74.5318 101.848 75.2989 101.766 75.7983L101.764 75.7956ZM130.957 75.7611C130.913 78.9729 133.96 80.9223 136.647 79.6586C137.106 79.4434 137.567 79.2226 137.996 78.955C138.513 78.6321 138.953 78.6128 139.521 78.9232C140.321 79.362 141.169 79.8255 142.051 79.9883C144.675 80.474 147.037 78.0954 146.526 75.4603C146.248 74.031 146.161 72.8693 147.517 71.8484C148.911 70.7984 149.34 69.2491 148.768 67.5797C148.201 65.9227 146.941 64.9722 145.188 64.877C143.85 64.8052 142.906 64.3762 142.551 63.0103C142.499 62.8144 142.379 62.635 142.275 62.4557C141.494 61.1133 140.32 60.3627 138.764 60.371C137.181 60.3807 135.995 61.1505 135.239 62.5412C134.986 63.0048 134.728 63.4725 134.542 63.965C134.352 64.4672 134.018 64.6562 133.506 64.7004C132.909 64.7528 132.31 64.8314 131.726 64.9639C128.647 65.6648 127.537 69.2656 129.687 71.5586C130.097 71.9946 130.531 72.4099 130.978 72.8086C131.283 73.0818 131.393 73.3549 131.297 73.7744C131.13 74.5111 131.037 75.2644 130.957 75.7583V75.7611ZM90.5978 68.6282C90.6256 66.8278 89.1326 65.0743 86.9529 64.9046C85.4766 64.7901 84.5817 64.2768 84.0503 62.8461C83.4523 61.2374 82.1203 60.3738 80.3846 60.3779C78.6474 60.3807 77.3376 61.2609 76.7258 62.8641C76.1999 64.2423 75.3646 64.8301 73.8828 64.899C72.1582 64.9791 70.9344 65.9821 70.3919 67.617C69.8549 69.2325 70.2753 70.7046 71.581 71.7959C72.6715 72.7079 73.257 73.6819 72.6826 75.0961C72.641 75.1995 72.6424 75.321 72.6244 75.4355C72.3913 77.011 72.906 78.3176 74.1756 79.2571C75.4423 80.1953 76.9283 80.4505 78.2797 79.6103C79.756 78.6914 80.9839 78.6252 82.4838 79.591C83.8366 80.4615 85.3545 80.2229 86.6421 79.2405C87.9214 78.2638 88.5374 76.9007 88.1212 75.3444C87.7105 73.813 87.9796 72.7051 89.2797 71.7338C90.1788 71.0633 90.5881 70.03 90.5992 68.6282H90.5978Z" fill="#3EAFFF"/>
<path d="M109.578 174.11C102.806 174.11 96.0334 174.11 89.261 174.11C86.7275 174.11 84.9904 172.436 85.032 169.936C85.0792 167.091 84.9682 164.215 85.34 161.407C86.6928 151.192 95.4451 142.812 105.751 141.718C110.373 141.227 114.93 141.46 119.324 143.205C128.211 146.735 134.148 155.404 134.149 164.916C134.149 166.617 134.153 168.318 134.148 170.018C134.139 172.393 132.419 174.108 130.035 174.108C123.217 174.111 116.397 174.108 109.579 174.108L109.578 174.11Z" fill="#3EAFFF"/>
<path d="M109.562 137.398C98.6103 137.281 90.6738 128.312 90.9555 118.359C91.233 108.554 99.4178 100.116 110.024 100.353C120.484 100.587 128.422 109.31 128.23 119.372C128.044 129.155 119.596 137.44 109.562 137.4V137.398Z" fill="#3EAFFF"/>
</g>
<defs>
<clipPath id="clip0_47_787">
<rect width="116.7" height="127.163" fill="white" transform="translate(51.2344 46.9484)"/>
</clipPath>
</defs>
</svg>
