<svg width="35" height="28" viewBox="0 0 35 28" fill="none" xmlns="http://www.w3.org/2000/svg">
<path fill-rule="evenodd" clip-rule="evenodd" d="M17.1326 7.35391L17.2051 8.54961L15.9966 8.4032C11.5974 7.84195 7.75423 5.93858 4.49114 2.74189L2.89585 1.15574L2.48494 2.32705C1.61478 4.93809 2.17071 7.69554 3.98354 9.55011C4.95039 10.575 4.73285 10.7214 3.06504 10.1114C2.48494 9.91614 1.97735 9.76973 1.929 9.84293C1.75981 10.0137 2.33991 12.2343 2.79916 13.1128C3.42761 14.3329 4.70868 15.5286 6.1106 16.2363L7.29498 16.7976L5.89306 16.822C4.53948 16.822 4.49114 16.8464 4.63616 17.3588C5.11958 18.945 7.0291 20.6287 9.15615 21.3608L10.6548 21.8732L9.34952 22.6541C7.41584 23.7766 5.14376 24.4111 2.87168 24.4599C1.78398 24.4843 0.889648 24.5819 0.889648 24.6551C0.889648 24.8991 3.83852 26.2656 5.55466 26.8025C10.7031 28.3886 16.8184 27.7054 21.4109 24.9967C24.674 23.0689 27.9371 19.2378 29.4598 15.5286C30.2817 13.5521 31.1035 9.94054 31.1035 8.20798C31.1035 7.08548 31.176 6.93907 32.5296 5.59695C33.3272 4.81608 34.0765 3.962 34.2215 3.71798C34.4633 3.25433 34.4391 3.25433 33.2064 3.66917C31.1518 4.40124 30.8618 4.30363 31.877 3.20553C32.6263 2.42466 33.5206 1.00933 33.5206 0.594493C33.5206 0.521286 33.158 0.643297 32.7471 0.862917C32.312 1.10694 31.3452 1.47297 30.6201 1.69259L29.3148 2.10743L28.1304 1.30216C27.4778 0.862917 26.5593 0.374873 26.0759 0.22846C24.8432 -0.113171 22.9578 -0.0643669 21.846 0.326069C18.8246 1.42417 16.9151 4.25482 17.1326 7.35391Z" fill="white"/>
</svg>
