<svg width="39" height="28" viewBox="0 0 39 28" fill="none" xmlns="http://www.w3.org/2000/svg">
<path fill-rule="evenodd" clip-rule="evenodd" d="M37.6583 4.3168C37.216 2.61755 35.9127 1.27946 34.2577 0.825326C31.2586 0 19.2311 0 19.2311 0C19.2311 0 7.20356 0 4.20417 0.825326C2.54921 1.27946 1.24587 2.61755 0.803552 4.3168C0 7.3965 0 13.8223 0 13.8223C0 13.8223 0 20.2479 0.803552 23.3278C1.24587 25.0271 2.54921 26.3652 4.20417 26.8195C7.20356 27.6446 19.2311 27.6446 19.2311 27.6446C19.2311 27.6446 31.2586 27.6446 34.2577 26.8195C35.9127 26.3652 37.216 25.0271 37.6583 23.3278C38.4621 20.2479 38.4621 13.8223 38.4621 13.8223C38.4621 13.8223 38.4621 7.3965 37.6583 4.3168" fill="white"/>
<path fill-rule="evenodd" clip-rule="evenodd" d="M15.6255 20.4336V8.41415L25.241 14.4241L15.6255 20.4336Z" fill="#2F237F"/>
</svg>
