<svg width="52" height="50" viewBox="0 0 52 50" fill="none" xmlns="http://www.w3.org/2000/svg">
<mask id="mask0_99_468" style="mask-type:luminance" maskUnits="userSpaceOnUse" x="0" y="0" width="52" height="50">
<path d="M51.4131 0.82959H0.413086V49.8296H51.4131V0.82959Z" fill="white"/>
</mask>
<g mask="url(#mask0_99_468)">
<path d="M0.413086 21.6429C0.465854 21.5108 0.525217 21.3788 0.577985 21.2402C0.980339 20.1048 1.75866 19.4051 2.95913 19.2467C3.35489 19.1939 3.50659 19.0354 3.60553 18.6592C4.18598 16.5006 5.08303 14.4741 6.24392 12.5597C6.57372 12.0119 6.94969 11.8798 7.37843 12.1505C7.78078 12.4079 7.84014 12.804 7.53013 13.3189C6.42201 15.1474 5.58432 17.0881 5.00388 19.141C4.92473 19.4315 4.93132 19.6163 5.22154 19.7946C5.43921 19.9266 5.65028 20.1312 5.7822 20.349C6.00646 20.7385 6.2769 20.7517 6.68585 20.6659C9.42317 20.1048 12.1935 19.8276 14.9836 19.7748C15.3134 19.7748 15.5047 19.6757 15.6959 19.3853C16.3951 18.3423 17.4043 17.8868 18.6509 18.0585C19.0071 18.1047 19.1852 17.9991 19.3831 17.735C20.7419 15.8999 22.2853 14.2298 23.9937 12.7248C24.2443 12.5069 24.3301 12.3353 24.2245 11.9722C24.086 11.5102 24.0728 10.9953 24.0926 10.5068C24.0992 10.2428 24.053 10.1239 23.8354 9.99849C21.5268 8.66506 19.0995 7.62209 16.494 6.86956C16.0455 7.63529 15.4123 8.19638 14.5285 8.42082C13.6446 8.63866 12.8201 8.50664 11.956 7.94554C11.303 8.62546 10.6566 9.32517 9.97064 9.99849C9.78595 10.1767 9.49573 10.3682 9.26487 10.3484C9.03401 10.3352 8.724 10.1041 8.63825 9.89287C8.55251 9.68823 8.62506 9.30537 8.77677 9.13374C9.40339 8.42742 10.0762 7.76071 10.7556 7.1072C10.96 6.90917 11.0194 6.75734 10.9271 6.4735C10.4851 5.11367 10.9337 3.80005 12.0879 3.01452C13.2554 2.22238 14.6406 2.295 15.7619 3.24556C15.9598 3.41718 16.0983 3.42379 16.3291 3.31157C20.3659 1.32463 24.6401 0.552303 29.1187 0.915364C32.021 1.15301 34.7979 1.87913 37.423 3.15314C37.7067 3.29176 37.898 3.31157 38.1684 3.10033C39.1974 2.3082 40.477 2.27519 41.5587 2.96831C42.6602 3.67463 43.2011 4.92884 42.8977 6.19625C42.8185 6.5197 42.8515 6.73754 43.122 6.91577C43.2143 6.98178 43.3001 7.06099 43.3792 7.14681C43.9465 7.76731 44.4807 8.15678 45.4767 7.90594C46.6772 7.60889 47.6666 8.2756 48.3064 9.32517C48.9396 10.3616 48.933 11.4442 48.2734 12.4739C48.0821 12.771 48.0821 12.9624 48.2536 13.2595C50.8656 17.9264 51.8418 22.9367 51.2218 28.2374C50.516 34.251 47.8711 39.2942 43.4584 43.4133C43.2605 43.5981 43.2209 43.7434 43.3 44.014C43.709 45.3738 43.2605 46.6611 42.1326 47.4334C41.0047 48.2057 39.6525 48.1529 38.5312 47.275C38.3267 47.1099 38.1816 47.1165 37.9639 47.2287C33.8612 49.3015 29.5079 50.1002 24.9435 49.7306C21.8895 49.4797 18.9741 48.6876 16.2368 47.2882C15.9136 47.1231 15.7025 47.1363 15.3991 47.341C14.3701 48.0539 13.0773 48.0143 12.0418 47.2882C11.0062 46.562 10.5247 45.354 10.8281 44.146C10.9073 43.8358 10.8545 43.6509 10.6104 43.4199C6.01306 39.1094 3.39446 33.8153 2.76785 27.5443C2.70189 26.8709 2.70189 26.1844 2.65571 25.5045C2.64252 25.3659 2.57656 25.1415 2.48422 25.1084C1.39588 24.7322 0.762672 23.9202 0.413086 22.8377C0.413086 22.435 0.413086 22.0389 0.413086 21.6429ZM17.3515 23.9665C17.3054 23.9929 17.2856 23.9995 17.279 24.0127C14.5746 29.5444 13.5391 35.3798 14.0799 41.5056C14.0931 41.6376 14.291 41.8224 14.4361 41.862C15.0825 42.0403 15.6498 42.3373 16.0521 42.872C16.2632 43.1493 16.4347 43.1757 16.7513 43.0568C20.4121 41.664 23.8485 39.8619 27.041 37.5977C30.4973 35.1421 33.5512 32.2574 36.2094 28.9503C36.3677 28.7523 36.3941 28.607 36.2556 28.3826C35.906 27.8149 35.7741 27.1746 35.873 26.5211C35.9258 26.1646 35.7872 26.0392 35.497 25.894C31.6977 24.0193 27.7138 22.7188 23.5451 21.9663C22.7536 21.8211 21.9555 21.7221 21.1706 21.6033C20.5704 23.4912 19.2116 24.3097 17.3383 23.9665H17.3515ZM39.0918 29.9603C38.6763 29.8942 38.3399 29.9008 38.0629 29.7754C37.6737 29.5972 37.489 29.7358 37.2515 30.0329C33.7293 34.3896 29.5673 38.007 24.7522 40.8719C22.3513 42.2977 19.8382 43.4925 17.2262 44.4761C17.0547 44.5421 16.8502 44.7005 16.7975 44.8589C16.7051 45.1692 16.7051 45.5059 16.6721 45.8359C16.7315 45.8755 16.7909 45.9151 16.8436 45.9415C23.6177 49.1695 30.3983 49.1761 37.1922 45.9745C37.4428 45.8557 37.5088 45.7303 37.4758 45.4464C37.2977 43.7962 38.109 42.5684 39.6591 42.0271C39.8042 41.9743 39.9823 41.7498 39.9889 41.5914C40.0614 40.3966 40.101 39.2018 40.1538 38.007C40.1736 37.4987 40.4572 37.2017 40.9057 37.2017C41.3542 37.2017 41.6577 37.5053 41.6445 38.0136C41.6115 39.2414 41.5917 40.4692 41.4796 41.6904C41.4334 42.1987 41.7962 42.1855 42.027 42.3769C42.2777 42.5816 42.4096 42.3835 42.5679 42.2449C44.7182 40.2448 46.4199 37.9146 47.6996 35.2675C47.8447 34.9639 47.8183 34.7857 47.5742 34.5414C45.6548 32.6469 43.6101 30.9108 41.3938 29.3794C41.2157 29.2539 41.0772 29.0097 40.754 29.2209C40.4242 29.4388 40.5232 29.6698 40.5825 29.9405C40.82 31.0956 41.0772 32.2442 41.2685 33.406C41.3674 33.9935 40.8991 34.383 40.3583 34.251C39.9163 34.1454 39.8372 33.7955 39.7712 33.4192C39.5535 32.264 39.3227 31.1088 39.0984 29.9669L39.0918 29.9603ZM11.7186 42.4627C12.576 42.2515 12.6222 41.7432 12.5629 41.0765C12.299 38.0466 12.4771 35.0431 13.0444 32.0528C13.605 29.1021 14.535 26.2768 15.8279 23.5704C15.907 23.412 15.9796 23.1743 15.9202 23.0357C15.663 22.4548 15.3464 21.9003 15.0297 21.2798C15.0693 21.2798 15.0034 21.2666 14.9374 21.2798C12.2199 21.5835 9.50233 21.8871 6.77819 22.1842C6.46818 22.2172 6.42861 22.3954 6.40222 22.6528C6.31647 23.577 5.85476 24.2767 5.06984 24.7586C4.79281 24.9302 4.48939 25.0556 4.12661 25.2339C4.50918 31.9538 6.93649 37.743 11.7186 42.476V42.4627ZM41.9413 7.85313C40.1999 8.96211 38.7554 8.71787 37.4296 7.15341C37.3505 7.06099 37.113 7.03459 36.9745 7.0742C34.633 7.77391 32.4101 8.77068 30.2862 9.97868C30.0158 10.1305 30.0026 10.3022 30.0092 10.5794C30.0158 11.0349 30.0092 11.5168 29.8773 11.9458C29.7651 12.3155 29.8443 12.5003 30.1147 12.738C33.3533 15.6161 35.9456 18.9892 37.898 22.8575C38.208 23.478 38.4718 23.9995 39.3095 23.8872C39.5667 23.8542 39.7382 23.8872 39.8965 23.6166C41.6972 20.5405 43.1286 17.3059 44.1773 13.8998C44.2565 13.6357 44.2301 13.4971 43.9926 13.3255C43.3594 12.8766 42.9768 12.2495 42.8119 11.4904C42.6207 10.6322 42.8251 9.85326 43.2737 9.09413C42.8251 8.67166 42.3898 8.269 41.9413 7.84653V7.85313ZM48.5306 33.208C48.5043 33.2476 48.5372 33.208 48.557 33.1684C48.6164 33.0166 48.6758 32.8581 48.7285 32.6997C49.3486 30.8646 49.7245 28.9899 49.8564 27.0558C50.1664 22.468 49.2628 18.1443 47.0268 14.1176C46.9476 13.9724 46.697 13.7677 46.631 13.7942C46.3012 13.9592 45.7801 13.6687 45.6152 14.276C45.358 15.2002 45.0282 16.1045 44.6984 17.0089C43.7552 19.5503 42.5877 21.9795 41.2223 24.3229C41.1366 24.4681 41.064 24.7454 41.1366 24.8378C41.8555 25.7223 42.0138 26.7059 41.7962 27.6565C44.085 29.5378 46.3078 31.3729 48.5306 33.2014V33.208ZM20.3923 18.877C20.6561 19.2995 20.8144 19.821 21.164 20.0388C21.54 20.2698 22.094 20.2038 22.5689 20.2764C27.3708 21.0158 31.9484 22.4482 36.3017 24.6068C36.4534 24.6794 36.7107 24.6662 36.8492 24.5804C36.9218 24.5341 36.9152 24.2239 36.8492 24.0853C34.9232 20.1246 32.3178 16.6854 29.033 13.7545C28.8219 13.5697 28.6702 13.5499 28.4262 13.6819C27.7072 14.0648 26.8893 14.2232 26.1769 13.8602C25.4118 13.4641 24.9699 13.7479 24.5081 14.2694C24.3894 14.4081 24.2443 14.5203 24.1124 14.6457C22.747 15.9593 21.4938 17.3653 20.3989 18.8836L20.3923 18.877ZM29.2375 8.8697C31.4471 7.56268 33.7491 6.5197 36.1698 5.74077C36.6931 5.57355 36.9833 5.20168 37.0405 4.62519C36.8162 4.51957 36.5788 4.40075 36.3413 4.28853C33.7689 3.13334 31.0777 2.49963 28.2678 2.35441C24.3498 2.15637 20.6165 2.88249 17.0877 4.61198C16.9426 4.6846 16.7777 4.92224 16.7843 5.06746C16.7975 5.21929 16.9887 5.40412 17.147 5.48333C17.4109 5.61535 17.7077 5.67476 17.9913 5.76058C20.3989 6.53291 22.6811 7.58248 24.8511 8.85649C26.3946 7.55608 28.0304 7.80032 29.2375 8.8631V8.8697ZM4.91813 22.2304C4.92473 21.3458 4.26513 20.6725 3.40106 20.6725C2.60954 20.6725 1.92356 21.359 1.90377 22.1644C1.88399 23.0093 2.53699 23.7156 3.36148 23.7354C4.25194 23.7552 4.91153 23.1149 4.92473 22.2304H4.91813ZM18.2156 22.5472C19.0731 22.5472 19.7195 21.8937 19.7261 21.029C19.7327 20.2038 19.0401 19.5041 18.2156 19.5041C17.3845 19.5041 16.6787 20.184 16.6721 21.0092C16.6655 21.8871 17.3383 22.5538 18.2156 22.5472ZM40.3714 26.8841C40.378 25.9996 39.725 25.3263 38.8478 25.3263C38.0431 25.3263 37.3703 25.9996 37.3505 26.8181C37.3307 27.6829 38.0233 28.409 38.8544 28.4024C39.7118 28.4024 40.3582 27.7423 40.3648 26.8841H40.3714ZM12.2594 5.52294C12.2594 6.34807 12.952 7.04779 13.7699 7.05439C14.5944 7.05439 15.287 6.35468 15.287 5.52954C15.287 4.65819 14.6538 4.00468 13.7963 3.99808C12.919 3.98488 12.2594 4.64499 12.2528 5.52954L12.2594 5.52294ZM27.0146 9.4704C26.1967 9.477 25.5107 10.1833 25.5173 11.0151C25.5305 11.8402 26.2429 12.5531 27.0476 12.5333C27.8985 12.5135 28.5515 11.8534 28.5581 11.0019C28.5581 10.1305 27.8919 9.4638 27.0146 9.4704ZM41.9611 44.9514C41.9545 44.08 41.3147 43.4397 40.4572 43.4397C39.5733 43.4397 38.9335 44.0932 38.9401 44.991C38.9467 45.8293 39.6261 46.496 40.4704 46.4828C41.3081 46.4762 41.9743 45.7963 41.9677 44.9514H41.9611ZM39.9889 3.99148C39.1512 3.99148 38.4652 4.65819 38.4586 5.49653C38.4586 6.38108 39.1182 7.05439 39.9889 7.04779C40.8464 7.04119 41.4862 6.39428 41.4928 5.52294C41.4994 4.6912 40.82 3.99808 39.9889 3.99808V3.99148ZM13.7633 43.2813C12.9454 43.2813 12.2594 43.981 12.2594 44.8127C12.2594 45.6709 12.9586 46.3706 13.8029 46.3574C14.6274 46.3442 15.3002 45.6445 15.287 44.8061C15.2738 43.981 14.568 43.2747 13.7633 43.2813ZM44.2367 10.8765C44.2367 11.761 44.9029 12.4145 45.7801 12.4013C46.5848 12.3881 47.2444 11.7214 47.2576 10.8963C47.2708 10.0447 46.6112 9.35818 45.7801 9.35158C44.8897 9.33838 44.2367 9.98528 44.2367 10.8765Z" fill="black"/>
</g>
</svg>
